<svg width="428" height="689" viewBox="0 0 428 689" fill="none" xmlns="http://www.w3.org/2000/svg">
<g clip-path="url(#clip0_10184_26440)">
<path d="M427.172 199.689C427.172 200.826 426.25 201.748 425.113 201.748L422.025 201.748L422.025 99.8448L425.113 99.8448C426.25 99.8448 427.172 100.767 427.172 101.903L427.172 199.689Z" fill="#F0ECE3"/>
<path opacity="0.76" d="M427.172 199.689C427.172 200.826 426.25 201.748 425.113 201.748L422.025 201.748L422.025 99.8448L425.113 99.8448C426.25 99.8448 427.172 100.767 427.172 101.903L427.172 199.689Z" fill="url(#paint0_linear_10184_26440)"/>
<path d="M427.172 199.689C427.172 200.826 426.25 201.748 425.113 201.748L422.025 201.748L422.025 99.8448L425.113 99.8448C426.25 99.8448 427.172 100.767 427.172 101.903L427.172 199.689Z" fill="url(#paint1_linear_10184_26440)"/>
<path opacity="0.48" d="M427.172 199.689C427.172 200.826 426.25 201.748 425.113 201.748L422.025 201.748L422.025 99.8448L425.113 99.8448C426.25 99.8448 427.172 100.767 427.172 101.903L427.172 199.689Z" fill="url(#paint2_linear_10184_26440)"/>
<g filter="url(#filter0_f_10184_26440)">
<path d="M426.141 120.946C426.141 121.231 425.91 121.461 425.626 121.461C425.342 121.461 425.111 121.231 425.111 120.946L425.111 101.904L426.141 101.904L426.141 120.946Z" fill="white"/>
</g>
<g filter="url(#filter1_f_10184_26440)">
<path d="M426.141 195.572L425.111 195.572L425.111 102.418C425.111 102.134 425.342 101.904 425.626 101.904C425.91 101.904 426.141 102.134 426.141 102.418L426.141 195.572Z" fill="white" fill-opacity="0.8"/>
</g>
<g filter="url(#filter2_f_10184_26440)">
<path d="M427.172 197.631L426.143 197.631L426.143 100.36C426.143 100.075 426.373 99.8449 426.657 99.8449C426.941 99.8449 427.172 100.075 427.172 100.36L427.172 197.631Z" fill="#61605D"/>
</g>
</g>
<g clip-path="url(#clip1_10184_26440)">
<path d="M0 2.05865C0 0.921687 0.921689 0 2.05865 0H5.14663V31.9091H2.05865C0.921691 31.9091 0 30.9874 0 29.8504V2.05865Z" fill="#F0ECE3"/>
<path opacity="0.76" d="M0 2.05865C0 0.921687 0.921689 0 2.05865 0H5.14663V31.9091H2.05865C0.921691 31.9091 0 30.9874 0 29.8504V2.05865Z" fill="url(#paint3_linear_10184_26440)"/>
<path d="M0 2.05865C0 0.921687 0.921689 0 2.05865 0H5.14663V31.9091H2.05865C0.921691 31.9091 0 30.9874 0 29.8504V2.05865Z" fill="url(#paint4_linear_10184_26440)"/>
<path opacity="0.48" d="M0 2.05865C0 0.921687 0.921689 0 2.05865 0H5.14663V31.9091H2.05865C0.921691 31.9091 0 30.9874 0 29.8504V2.05865Z" fill="url(#paint5_linear_10184_26440)"/>
<g filter="url(#filter3_f_10184_26440)">
<path d="M1.03125 1.54396C1.03125 1.25972 1.26167 1.0293 1.54591 1.0293C1.83015 1.0293 2.06058 1.25972 2.06058 1.54396V7.20525H1.03125V1.54396Z" fill="white"/>
</g>
<g filter="url(#filter4_f_10184_26440)">
<path d="M1.03125 3.08789H2.06058V29.3357C2.06058 29.6199 1.83015 29.8504 1.54591 29.8504C1.26167 29.8504 1.03125 29.6199 1.03125 29.3357V3.08789Z" fill="white" fill-opacity="0.8"/>
</g>
<g filter="url(#filter5_f_10184_26440)">
<path d="M0 -1.0293H1.02933V33.4531C1.02933 33.7373 0.798903 33.9678 0.514663 33.9678C0.230422 33.9678 0 33.7373 0 33.4531V-1.0293Z" fill="#61605D"/>
</g>
</g>
<g clip-path="url(#clip2_10184_26440)">
<path d="M0 63.8184C0 62.6815 0.921689 61.7598 2.05865 61.7598H5.14663V119.402H2.05865C0.921691 119.402 0 118.48 0 117.343V63.8184Z" fill="#F0ECE3"/>
<path opacity="0.76" d="M0 63.8184C0 62.6815 0.921689 61.7598 2.05865 61.7598H5.14663V119.402H2.05865C0.921691 119.402 0 118.48 0 117.343V63.8184Z" fill="url(#paint6_linear_10184_26440)"/>
<path d="M0 63.8184C0 62.6815 0.921689 61.7598 2.05865 61.7598H5.14663V119.402H2.05865C0.921691 119.402 0 118.48 0 117.343V63.8184Z" fill="url(#paint7_linear_10184_26440)"/>
<path opacity="0.48" d="M0 63.8184C0 62.6815 0.921689 61.7598 2.05865 61.7598H5.14663V119.402H2.05865C0.921691 119.402 0 118.48 0 117.343V63.8184Z" fill="url(#paint8_linear_10184_26440)"/>
<g filter="url(#filter6_f_10184_26440)">
<path d="M1.03125 64.333C1.03125 64.0488 1.26167 63.8184 1.54591 63.8184C1.83015 63.8184 2.06058 64.0488 2.06058 64.333V75.1409H1.03125V64.333Z" fill="white"/>
</g>
<g filter="url(#filter7_f_10184_26440)">
<path d="M1.03125 64.8477H2.06058V117.858C2.06058 118.142 1.83015 118.373 1.54591 118.373C1.26167 118.373 1.03125 118.142 1.03125 117.858V64.8477Z" fill="white" fill-opacity="0.8"/>
</g>
<g filter="url(#filter8_f_10184_26440)">
<path d="M0 61.7598H1.02933V120.946C1.02933 121.23 0.798903 121.461 0.514663 121.461C0.230422 121.461 0 121.23 0 120.946V61.7598Z" fill="#61605D"/>
</g>
</g>
<g clip-path="url(#clip3_10184_26440)">
<path d="M0 138.959C0 137.822 0.921689 136.9 2.05865 136.9H5.14663V194.543H2.05865C0.921691 194.543 0 193.621 0 192.484V138.959Z" fill="#F0ECE3"/>
<path opacity="0.76" d="M0 138.959C0 137.822 0.921689 136.9 2.05865 136.9H5.14663V194.543H2.05865C0.921691 194.543 0 193.621 0 192.484V138.959Z" fill="url(#paint9_linear_10184_26440)"/>
<path d="M0 138.959C0 137.822 0.921689 136.9 2.05865 136.9H5.14663V194.543H2.05865C0.921691 194.543 0 193.621 0 192.484V138.959Z" fill="url(#paint10_linear_10184_26440)"/>
<path opacity="0.48" d="M0 138.959C0 137.822 0.921689 136.9 2.05865 136.9H5.14663V194.543H2.05865C0.921691 194.543 0 193.621 0 192.484V138.959Z" fill="url(#paint11_linear_10184_26440)"/>
<g filter="url(#filter9_f_10184_26440)">
<path d="M1.03125 139.474C1.03125 139.189 1.26167 138.959 1.54591 138.959C1.83015 138.959 2.06058 139.189 2.06058 139.474V150.282H1.03125V139.474Z" fill="white"/>
</g>
<g filter="url(#filter10_f_10184_26440)">
<path d="M1.03125 139.988H2.06058V192.999C2.06058 193.283 1.83015 193.513 1.54591 193.513C1.26167 193.513 1.03125 193.283 1.03125 192.999V139.988Z" fill="white" fill-opacity="0.8"/>
</g>
<g filter="url(#filter11_f_10184_26440)">
<path d="M0 136.9H1.02933V196.087C1.02933 196.371 0.798903 196.601 0.514663 196.601C0.230422 196.601 0 196.371 0 196.087V136.9Z" fill="#61605D"/>
</g>
</g>
<defs>
<filter id="filter0_f_10184_26440" x="424.08" y="100.874" width="3.0899" height="21.6163" filterUnits="userSpaceOnUse" color-interpolation-filters="sRGB">
<feFlood flood-opacity="0" result="BackgroundImageFix"/>
<feBlend mode="normal" in="SourceGraphic" in2="BackgroundImageFix" result="shape"/>
<feGaussianBlur stdDeviation="0.514663" result="effect1_foregroundBlur_10184_26440"/>
</filter>
<filter id="filter1_f_10184_26440" x="424.08" y="100.874" width="3.0899" height="95.7276" filterUnits="userSpaceOnUse" color-interpolation-filters="sRGB">
<feFlood flood-opacity="0" result="BackgroundImageFix"/>
<feBlend mode="normal" in="SourceGraphic" in2="BackgroundImageFix" result="shape"/>
<feGaussianBlur stdDeviation="0.514663" result="effect1_foregroundBlur_10184_26440"/>
</filter>
<filter id="filter2_f_10184_26440" x="424.082" y="97.7861" width="5.14855" height="101.903" filterUnits="userSpaceOnUse" color-interpolation-filters="sRGB">
<feFlood flood-opacity="0" result="BackgroundImageFix"/>
<feBlend mode="normal" in="SourceGraphic" in2="BackgroundImageFix" result="shape"/>
<feGaussianBlur stdDeviation="1.02933" result="effect1_foregroundBlur_10184_26440"/>
</filter>
<filter id="filter3_f_10184_26440" x="0.00192451" y="-2.86102e-05" width="3.0899" height="8.23443" filterUnits="userSpaceOnUse" color-interpolation-filters="sRGB">
<feFlood flood-opacity="0" result="BackgroundImageFix"/>
<feBlend mode="normal" in="SourceGraphic" in2="BackgroundImageFix" result="shape"/>
<feGaussianBlur stdDeviation="0.514663" result="effect1_foregroundBlur_10184_26440"/>
</filter>
<filter id="filter4_f_10184_26440" x="0.00192451" y="2.05857" width="3.0899" height="28.8213" filterUnits="userSpaceOnUse" color-interpolation-filters="sRGB">
<feFlood flood-opacity="0" result="BackgroundImageFix"/>
<feBlend mode="normal" in="SourceGraphic" in2="BackgroundImageFix" result="shape"/>
<feGaussianBlur stdDeviation="0.514663" result="effect1_foregroundBlur_10184_26440"/>
</filter>
<filter id="filter5_f_10184_26440" x="-2.05865" y="-3.08795" width="5.14855" height="39.1144" filterUnits="userSpaceOnUse" color-interpolation-filters="sRGB">
<feFlood flood-opacity="0" result="BackgroundImageFix"/>
<feBlend mode="normal" in="SourceGraphic" in2="BackgroundImageFix" result="shape"/>
<feGaussianBlur stdDeviation="1.02933" result="effect1_foregroundBlur_10184_26440"/>
</filter>
<filter id="filter6_f_10184_26440" x="0.00192451" y="62.789" width="3.0899" height="13.3809" filterUnits="userSpaceOnUse" color-interpolation-filters="sRGB">
<feFlood flood-opacity="0" result="BackgroundImageFix"/>
<feBlend mode="normal" in="SourceGraphic" in2="BackgroundImageFix" result="shape"/>
<feGaussianBlur stdDeviation="0.514663" result="effect1_foregroundBlur_10184_26440"/>
</filter>
<filter id="filter7_f_10184_26440" x="0.00192451" y="63.8183" width="3.0899" height="55.584" filterUnits="userSpaceOnUse" color-interpolation-filters="sRGB">
<feFlood flood-opacity="0" result="BackgroundImageFix"/>
<feBlend mode="normal" in="SourceGraphic" in2="BackgroundImageFix" result="shape"/>
<feGaussianBlur stdDeviation="0.514663" result="effect1_foregroundBlur_10184_26440"/>
</filter>
<filter id="filter8_f_10184_26440" x="-2.05865" y="59.7011" width="5.14855" height="63.8185" filterUnits="userSpaceOnUse" color-interpolation-filters="sRGB">
<feFlood flood-opacity="0" result="BackgroundImageFix"/>
<feBlend mode="normal" in="SourceGraphic" in2="BackgroundImageFix" result="shape"/>
<feGaussianBlur stdDeviation="1.02933" result="effect1_foregroundBlur_10184_26440"/>
</filter>
<filter id="filter9_f_10184_26440" x="0.00192451" y="137.93" width="3.0899" height="13.3809" filterUnits="userSpaceOnUse" color-interpolation-filters="sRGB">
<feFlood flood-opacity="0" result="BackgroundImageFix"/>
<feBlend mode="normal" in="SourceGraphic" in2="BackgroundImageFix" result="shape"/>
<feGaussianBlur stdDeviation="0.514663" result="effect1_foregroundBlur_10184_26440"/>
</filter>
<filter id="filter10_f_10184_26440" x="0.00192451" y="138.959" width="3.0899" height="55.584" filterUnits="userSpaceOnUse" color-interpolation-filters="sRGB">
<feFlood flood-opacity="0" result="BackgroundImageFix"/>
<feBlend mode="normal" in="SourceGraphic" in2="BackgroundImageFix" result="shape"/>
<feGaussianBlur stdDeviation="0.514663" result="effect1_foregroundBlur_10184_26440"/>
</filter>
<filter id="filter11_f_10184_26440" x="-2.05865" y="134.842" width="5.14855" height="63.8185" filterUnits="userSpaceOnUse" color-interpolation-filters="sRGB">
<feFlood flood-opacity="0" result="BackgroundImageFix"/>
<feBlend mode="normal" in="SourceGraphic" in2="BackgroundImageFix" result="shape"/>
<feGaussianBlur stdDeviation="1.02933" result="effect1_foregroundBlur_10184_26440"/>
</filter>
<linearGradient id="paint0_linear_10184_26440" x1="424.599" y1="201.748" x2="424.599" y2="197.116" gradientUnits="userSpaceOnUse">
<stop/>
<stop offset="1" stop-opacity="0"/>
</linearGradient>
<linearGradient id="paint1_linear_10184_26440" x1="422.025" y1="201.748" x2="425.628" y2="201.748" gradientUnits="userSpaceOnUse">
<stop/>
<stop offset="1" stop-color="#AEAEAE" stop-opacity="0"/>
</linearGradient>
<linearGradient id="paint2_linear_10184_26440" x1="424.599" y1="104.477" x2="424.599" y2="99.8448" gradientUnits="userSpaceOnUse">
<stop stop-opacity="0"/>
<stop offset="1"/>
</linearGradient>
<linearGradient id="paint3_linear_10184_26440" x1="2.57331" y1="0" x2="2.57331" y2="3.08798" gradientUnits="userSpaceOnUse">
<stop/>
<stop offset="1" stop-opacity="0"/>
</linearGradient>
<linearGradient id="paint4_linear_10184_26440" x1="5.14663" y1="0" x2="1.54399" y2="0" gradientUnits="userSpaceOnUse">
<stop/>
<stop offset="1" stop-color="#AEAEAE" stop-opacity="0"/>
</linearGradient>
<linearGradient id="paint5_linear_10184_26440" x1="2.57331" y1="26.451" x2="2.57331" y2="31.9091" gradientUnits="userSpaceOnUse">
<stop stop-opacity="0"/>
<stop offset="1"/>
</linearGradient>
<linearGradient id="paint6_linear_10184_26440" x1="2.57331" y1="61.7598" x2="2.57331" y2="65.8771" gradientUnits="userSpaceOnUse">
<stop/>
<stop offset="1" stop-opacity="0"/>
</linearGradient>
<linearGradient id="paint7_linear_10184_26440" x1="5.14663" y1="61.7598" x2="1.54399" y2="61.7598" gradientUnits="userSpaceOnUse">
<stop/>
<stop offset="1" stop-color="#AEAEAE" stop-opacity="0"/>
</linearGradient>
<linearGradient id="paint8_linear_10184_26440" x1="2.57331" y1="115.285" x2="2.57331" y2="119.402" gradientUnits="userSpaceOnUse">
<stop stop-opacity="0"/>
<stop offset="1"/>
</linearGradient>
<linearGradient id="paint9_linear_10184_26440" x1="2.57331" y1="136.9" x2="2.57331" y2="141.018" gradientUnits="userSpaceOnUse">
<stop/>
<stop offset="1" stop-opacity="0"/>
</linearGradient>
<linearGradient id="paint10_linear_10184_26440" x1="5.14663" y1="136.9" x2="1.54399" y2="136.9" gradientUnits="userSpaceOnUse">
<stop/>
<stop offset="1" stop-color="#AEAEAE" stop-opacity="0"/>
</linearGradient>
<linearGradient id="paint11_linear_10184_26440" x1="2.57331" y1="190.425" x2="2.57331" y2="194.543" gradientUnits="userSpaceOnUse">
<stop stop-opacity="0"/>
<stop offset="1"/>
</linearGradient>
<clipPath id="clip0_10184_26440">
<path d="M427.172 200.719C427.172 201.856 426.25 202.777 425.113 202.777L422.025 202.777L422.025 99.8448L425.113 99.8448C426.25 99.8448 427.172 100.766 427.172 101.903L427.172 200.719Z" fill="white"/>
</clipPath>
<clipPath id="clip1_10184_26440">
<path d="M0 2.05865C0 0.921687 0.921689 0 2.05865 0H5.14663V31.9091H2.05865C0.921691 31.9091 0 30.9874 0 29.8504V2.05865Z" fill="white"/>
</clipPath>
<clipPath id="clip2_10184_26440">
<path d="M0 63.8184C0 62.6815 0.921689 61.7598 2.05865 61.7598H5.14663V119.402H2.05865C0.921691 119.402 0 118.48 0 117.343V63.8184Z" fill="white"/>
</clipPath>
<clipPath id="clip3_10184_26440">
<path d="M0 138.959C0 137.822 0.921689 136.9 2.05865 136.9H5.14663V194.543H2.05865C0.921691 194.543 0 193.621 0 192.484V138.959Z" fill="white"/>
</clipPath>
</defs>
</svg>
