<svg width="80" height="80" viewBox="0 0 80 80" fill="none" xmlns="http://www.w3.org/2000/svg">
<path d="M39.0698 0C39.0698 4.93426 37.0116 9.66643 33.3481 13.1555C29.6846 16.6445 24.7159 18.6047 19.5349 18.6047C14.3539 18.6047 9.38514 16.6445 5.72164 13.1555C2.05813 9.66643 7.82305e-07 4.93426 0 2.80922e-06L39.0698 0Z" fill="#101010"/>
<path d="M4.76837e-07 39.0698C4.76837e-07 34.1355 2.05813 29.4033 5.72164 25.9143C9.38514 22.4252 14.3539 20.4651 19.5349 20.4651C24.7159 20.4651 29.6846 22.4252 33.3481 25.9143C37.0116 29.4033 39.0698 34.1355 39.0698 39.0698L4.76837e-07 39.0698Z" fill="#101010"/>
<path d="M40.9302 4.76837e-07C45.8645 4.76837e-07 50.5967 2.05814 54.0857 5.72164C57.5748 9.38514 59.5349 14.3539 59.5349 19.5349C59.5349 24.7159 57.5748 29.6846 54.0857 33.3481C50.5967 37.0116 45.8645 39.0698 40.9302 39.0698L40.9302 4.76837e-07Z" fill="#101010"/>
<path d="M80 39.0698C75.0657 39.0698 70.3336 37.0116 66.8445 33.3481C63.3555 29.6846 61.3953 24.7159 61.3953 19.5349C61.3953 14.3539 63.3555 9.38514 66.8445 5.72164C70.3336 2.05813 75.0657 7.82305e-07 80 0V39.0698Z" fill="#101010"/>
<path d="M0 40.9302C4.93426 40.9302 9.66643 42.9884 13.1555 46.6519C16.6445 50.3154 18.6047 55.2841 18.6047 60.4651C18.6047 65.6461 16.6445 70.6149 13.1555 74.2784C9.66643 77.9419 4.93426 80 2.80922e-06 80L0 40.9302Z" fill="#101010"/>
<path d="M39.0698 80C34.1355 80 29.4033 77.9419 25.9143 74.2784C22.4252 70.6149 20.4651 65.6461 20.4651 60.4651C20.4651 55.2841 22.4252 50.3154 25.9143 46.6519C29.4033 42.9884 34.1355 40.9302 39.0698 40.9302L39.0698 80Z" fill="#101010"/>
<path d="M80 40.9302C80 45.8645 77.9419 50.5967 74.2784 54.0857C70.6149 57.5748 65.6461 59.5349 60.4651 59.5349C55.2841 59.5349 50.3154 57.5748 46.6519 54.0857C42.9884 50.5967 40.9302 45.8645 40.9302 40.9302H80Z" fill="#101010"/>
<path d="M40.9302 80C40.9302 75.0657 42.9884 70.3336 46.6519 66.8445C50.3154 63.3555 55.2841 61.3954 60.4651 61.3954C65.6461 61.3954 70.6149 63.3555 74.2784 66.8445C77.9419 70.3336 80 75.0657 80 80H40.9302Z" fill="#101010"/>
</svg>
